<?xml version="1.0" encoding="utf-8"?>
<!-- Generator: Adobe Illustrator 16.0.0, SVG Export Plug-In . SVG Version: 6.00 Build 0)  -->
<!DOCTYPE svg PUBLIC "-//W3C//DTD SVG 1.1//EN" "http://www.w3.org/Graphics/SVG/1.1/DTD/svg11.dtd">
<svg class="cerf" version="1.1" id="Calque_1" xmlns="http://www.w3.org/2000/svg" xmlns:xlink="http://www.w3.org/1999/xlink" x="0px" y="0px"
     width="1920px" height="1080px" viewBox="0 0 1920 1080" enable-background="new 0 0 1920 1080" xml:space="preserve">
<path d="M805.98,460.57c-0.076,0.203-0.161,0.403-0.229,0.609c-0.574,1.767-1.33,3.438-2.504,4.9
	c-1.119,1.393-2.473,2.459-4.154,3.092c-1.006,0.378-2.033,0.646-3.119,0.64c-0.461-0.003-0.901-0.075-1.324-0.256
	c-1.768-0.759-3.637-1.142-5.518-1.479c-2.663-0.477-5.349-0.508-8.036-0.373c-1.388,0.07-2.775,0.219-4.153,0.413
	c-2.818,0.399-5.636,0.823-8.443,1.293c-2.079,0.35-4.162,0.612-6.269,0.691c-1.198,0.045-2.391-0.03-3.579-0.221
	c-0.941-0.151-1.807-0.5-2.647-0.918c-1.254-0.624-2.207-1.588-2.91-2.78c-0.376-0.637-0.647-1.336-0.961-2.009
	c-0.164-0.353-0.312-0.71-0.469-1.065c-0.259-0.584-0.224-1.131,0.206-1.63c0.127-0.146,0.231-0.314,0.369-0.45
	c0.392-0.388,0.459-0.83,0.224-1.462c-0.058,0.218-0.1,0.317-0.108,0.42c-0.037,0.456-0.313,0.688-0.726,0.801
	c-0.094,0.025-0.188,0.044-0.283,0.07c-0.722,0.196-0.831,0.352-0.757,1.091c0.016,0.151,0.057,0.3,0.092,0.484
	c-0.73-0.229-1.206-0.584-1.555-1.149c-1.006-1.635-0.41-3.59,0.797-4.437c1.67-1.17,3.285-2.421,4.961-3.579
	c2.85-1.968,5.725-3.898,8.6-5.83c0.94-0.631,1.896-1.239,2.866-1.825c2.438-1.473,4.881-2.935,7.332-4.387
	c2.979-1.766,6.021-3.419,9.119-4.968c0.406-0.203,0.683-0.467,0.813-0.895c0.027-0.093,0.063-0.183,0.096-0.274
	c0.436-1.268,0.16-2.281-0.883-3.12c-0.845-0.682-1.817-1.112-2.864-1.382c-0.564-0.146-1.132-0.275-1.693-0.428
	c-2.013-0.542-3.913-1.365-5.698-2.424c-3.526-2.09-6.153-5.015-7.891-8.729c-1.356-2.905-2.094-5.979-2.408-9.158
	c-0.102-1.03-0.145-2.066-0.209-3.101c-0.007-0.118,0.021-0.239,0.039-0.444c0.293,0.258,0.321,0.557,0.412,0.815
	c0.832,2.352,1.729,4.676,2.843,6.909c0.899,1.802,1.895,3.543,3.322,4.993c0.404,0.409,0.828,0.793,1.444,1.031
	c-0.015-0.169,0.001-0.269-0.033-0.343c-1.055-2.28-1.65-4.699-2.117-7.151c-0.453-2.385-0.758-4.793-0.911-7.237
	c0.09,0.242,0.188,0.48,0.268,0.726c0.493,1.507,0.958,3.024,1.689,4.44c0.146,0.278,0.241,0.591,0.559,0.769
	c0.169-0.329,0.033-0.602-0.021-0.875c-0.356-1.785-0.531-3.583-0.496-5.405c0.086-4.268,1.515-8.04,4.16-11.367
	c0.034-0.042,0.113-0.048,0.245-0.101c-0.152,0.822-0.301,1.604-0.44,2.389c-0.565,3.16-0.996,6.333-0.898,9.556
	c0.034,1.106,0.172,2.194,0.441,3.267c0.176,0.697,0.465,1.346,0.841,1.955c0.078,0.127,0.204,0.227,0.376,0.413
	c0.275-0.642,0.266-1.259,0.441-1.823c0.184-0.586,0.332-1.186,0.542-1.761c0.212-0.576,0.462-1.142,0.735-1.69
	s0.576-1.087,0.9-1.608c0.322-0.521,0.667-1.034,1.042-1.52c0.366-0.475,0.655-1.03,1.28-1.412c-0.025,0.249-0.031,0.403-0.06,0.552
	c-0.527,2.751-0.707,5.526-0.484,8.316c0.313,3.928,1.522,7.537,3.975,10.671c1.063,1.361,2.323,2.531,3.74,3.512
	c1.359,0.941,2.807,1.739,4.365,2.311c0.208,0.076,0.427,0.119,0.688,0.189c0.138-0.284,0.276-0.534,0.385-0.798
	c1.039-2.534,2.371-4.895,4.167-6.972c0.676-0.782,1.392-1.538,2.152-2.238c1.529-1.408,3.229-2.597,5.036-3.621
	c1.323-0.75,2.676-1.447,4.013-2.171c1.621-0.878,3.267-1.712,4.823-2.708c1.123-0.718,2.164-1.534,3.188-2.381
	c1.151-0.953,1.952-2.154,2.492-3.53c0.806-2.053,1.084-4.186,0.943-6.384c-0.22-3.439-1.23-6.669-2.561-9.816
	c-1.276-3.018-2.844-5.885-4.556-8.674c-0.117-0.19-0.234-0.382-0.343-0.558c0.135-0.212,0.238-0.085,0.326-0.021
	c3.026,2.236,5.354,5.051,7.021,8.422c1.42,2.875,2.232,5.925,2.697,9.082c0.217,1.475,0.454,2.947,0.96,4.354
	c0.185,0.512,0.423,1.021,0.726,1.47c0.491,0.728,1.149,0.808,1.815,0.224c0.434-0.382,0.854-0.811,1.168-1.291
	c1.559-2.396,2.891-4.912,3.769-7.641c0.672-2.09,0.852-4.245,0.62-6.432c-0.03-0.29-0.045-0.582-0.083-0.87
	c-0.104-0.803-0.25-1.589-0.545-2.356c-1.159-3.021-2.191-6.088-3.043-9.214c-0.853-3.129-1.521-6.296-1.778-9.531
	c-0.218-2.754-0.178-5.504,0.531-8.202c0.38-1.449,0.944-2.822,1.759-4.085c0.096-0.149,0.231-0.273,0.438-0.514
	c0.099,0.514,0.031,0.89,0.021,1.261c-0.036,1.133-0.115,2.265-0.107,3.396c0.018,3.119,0.334,6.204,1.136,9.229
	c0.736,2.781,1.901,5.365,3.589,7.7c0.396,0.549,0.863,1.05,1.321,1.551c0.171,0.188,0.395,0.342,0.619,0.46
	c0.618,0.325,1.16,0.167,1.455-0.465c0.189-0.405,0.334-0.847,0.414-1.287c0.114-0.636,0.185-1.283,0.216-1.93
	c0.134-2.76-0.069-5.504-0.494-8.229c-0.369-2.366-0.806-4.721-1.208-7.081c-0.021-0.114-0.003-0.235-0.003-0.578
	c0.174,0.368,0.262,0.533,0.333,0.704c1.524,3.662,2.626,7.447,3.213,11.371c0.926,6.192,0.433,12.268-1.63,18.198
	c-0.148,0.428-0.27,0.869-0.461,1.276c-0.323,0.688-0.451,1.413-0.526,2.156c-0.31,3.04-0.944,6.007-1.967,8.889
	c-1.271,3.58-3.127,6.815-5.628,9.681c-1.668,1.911-3.542,3.593-5.563,5.124c-2.197,1.666-4.533,3.114-6.889,4.536
	c-2.079,1.255-4.184,2.468-6.235,3.761c-2.028,1.276-3.989,2.658-5.713,4.34c-0.114,0.111-0.208,0.242-0.307,0.367
	c-0.012,0.014,0.006,0.05,0.022,0.148c0.151-0.05,0.297-0.086,0.436-0.143c1.969-0.825,3.935-1.657,5.904-2.479
	c0.417-0.175,0.846-0.324,1.272-0.475c2.687-0.941,5.399-1.797,8.149-2.539c1.997-0.539,3.982-1.131,5.954-1.76
	c1.386-0.442,2.748-0.964,4.104-1.492c1.062-0.414,1.992-1.078,2.907-1.741c1.606-1.162,3.045-2.506,4.291-4.059
	c1.913-2.382,3.248-5.059,4.134-7.966c0.826-2.708,1.246-5.486,1.385-8.313c0.198-4.028-0.101-8.023-0.729-12.001
	c-0.019-0.117-0.014-0.237-0.029-0.569c0.188,0.305,0.277,0.427,0.344,0.561c1.364,2.712,2.245,5.573,2.707,8.573
	c0.452,2.932,0.474,5.865,0.208,8.813c-0.375,4.151-1.362,8.165-2.685,12.104c-0.195,0.583-0.412,1.158-0.61,1.74
	c-0.051,0.147-0.075,0.304-0.105,0.436c0.182,0.188,0.344,0.084,0.479,0.029c2.316-0.927,4.569-1.986,6.716-3.26
	c1.029-0.609,2.049-1.236,3.052-1.891c2.482-1.618,4.714-3.536,6.683-5.749c3.485-3.921,5.696-8.458,6.503-13.657
	c0.129-0.832,0.222-1.669,0.306-2.506c0.075-0.742,0.045-1.48-0.044-2.227c-0.51-4.222-0.715-8.458-0.426-12.703
	c0.194-2.851,0.665-5.659,1.714-8.338c0.294-0.753,0.663-1.476,1.01-2.205c0.079-0.163,0.213-0.299,0.432-0.599
	c-0.157,1.475-0.304,2.751-0.431,4.032c-0.371,3.681-0.481,7.37-0.244,11.063c0.173,2.657,0.681,5.263,1.534,7.791
	c0.216,0.643,0.477,1.274,0.785,1.879c0.201,0.395,0.485,0.77,0.804,1.081c0.458,0.445,1.05,0.464,1.612,0.144
	c0.462-0.262,0.823-0.639,1.105-1.075c0.403-0.624,0.804-1.255,1.144-1.915c1.67-3.241,2.782-6.688,3.684-10.207
	c0.508-1.974,0.929-3.969,1.393-5.954c0.042-0.179,0.11-0.352,0.279-0.517c0.013,0.143,0.028,0.284,0.035,0.426
	c0.049,1.036,0.108,2.071,0.138,3.106c0.066,2.463-0.054,4.92-0.274,7.374c-0.271,3.006-0.791,5.965-1.583,8.877
	c-1.505,5.534-3.956,10.596-7.482,15.13c-1.897,2.438-4.03,4.642-6.387,6.638c-2.303,1.952-4.765,3.674-7.364,5.207
	c-2.094,1.234-4.25,2.337-6.467,3.332c-2.955,1.326-5.985,2.443-9.073,3.421c-2.006,0.634-4.042,1.15-6.074,1.688
	c-2.787,0.738-5.613,1.275-8.453,1.757c-1.435,0.243-2.872,0.479-4.305,0.733c-1.251,0.224-2.422,0.651-3.534,1.289
	c-1.682,0.964-3.107,2.21-4.357,3.676c-0.082,0.096-0.141,0.214-0.202,0.324c-0.011,0.018,0.015,0.053,0.023,0.079
	c0.024,0.016,0.062,0.05,0.072,0.042c0.241-0.158,0.495-0.304,0.718-0.487c1.037-0.855,2.212-1.448,3.465-1.917
	c1.141-0.427,2.323-0.581,3.522-0.606c0.905-0.02,1.813,0.035,2.718,0.083c1.364,0.073,2.718,0.038,4.059-0.25
	c1.054-0.225,2.055-0.577,2.959-1.173c0.104-0.068,0.229-0.101,0.38-0.166c0.042,0.113,0.101,0.195,0.094,0.271
	c-0.194,2.225-0.353,4.453-0.933,6.624c-0.51,1.903-1.498,3.491-3.012,4.764c-0.771,0.648-1.599,1.209-2.474,1.707
	c-0.332,0.188-0.699,0.332-0.979,0.711c0.941,1.091,1.9,2.178,2.829,3.289c0.914,1.092,1.82,2.192,2.688,3.32
	c0.889,1.153,1.737,2.34,2.588,3.521c0.829,1.154,1.607,2.342,2.297,3.557c-0.121,0.267-0.292,0.131-0.433,0.129
	c-0.509-0.009-0.996-0.268-1.62-0.146c0.167,0.127,0.253,0.225,0.359,0.271c0.941,0.404,1.689,1.072,2.432,1.75
	c0.678,0.62,1.197,1.353,1.591,2.184c1.736,3.661,2.812,7.503,3.257,11.531c0.261,2.358,0.273,4.72,0.129,7.083
	c-0.091,1.486-0.325,2.96-0.624,4.42c-0.042,0.208-0.123,0.408-0.229,0.748c-0.555-1.325-0.799-2.652-1.783-3.898
	c0.091,0.446,0.116,0.678,0.187,0.895c0.568,1.72,0.708,3.48,0.559,5.275c-0.066,0.787-0.295,1.509-0.691,2.2
	c-1.477,2.575-3.3,4.874-5.416,6.95c-1.994,1.957-4.168,3.685-6.493,5.231c-1.86,1.239-3.786,2.361-5.772,3.388
	c-2.477,1.278-5.021,2.394-7.62,3.392c-3.721,1.427-7.53,2.553-11.397,3.509c-3.021,0.747-6.082,1.241-9.147,1.743
	c-2.496,0.408-5.012,0.567-7.524,0.765c-0.078-0.249,0.105-0.294,0.224-0.376c1.089-0.759,2.182-1.51,3.268-2.272
	c2.417-1.698,4.66-3.605,6.731-5.711c1.296-1.317,2.503-2.712,3.551-4.238c0.179-0.261,0.33-0.542,0.479-0.787
	c-0.15-0.218-0.264-0.129-0.363-0.061c-0.482,0.329-0.956,0.667-1.44,0.989c-0.203,0.135-0.428,0.235-0.852,0.466
	c0.271-0.433,0.408-0.677,0.573-0.9c1.558-2.129,2.803-4.427,3.726-6.899c1.102-2.948,1.638-5.99,1.441-9.142
	c-0.181-2.883-0.968-5.602-2.292-8.167c-0.208-0.402-0.406-0.809-0.606-1.215c-0.012-0.023,0.006-0.063,0.021-0.166
	c0.146-0.091,0.325-0.215,0.516-0.32c0.622-0.345,1.265-0.656,1.869-1.029c3.129-1.926,4.847-4.767,5.365-8.368
	c0.073-0.513,0.108-1.03,0.154-1.546c0.008-0.094-0.021-0.189-0.033-0.284C806.079,460.582,806.03,460.576,805.98,460.57z
	 M783.797,445.713c0.2,0,0.394,0.032,0.57-0.006c0.822-0.176,1.642-0.36,2.458-0.562c1.763-0.433,3.462-1.047,5.106-1.814
	c0.8-0.371,1.514-0.867,2.178-1.441c0.472-0.408,0.842-0.889,1.083-1.47c0.474-1.14,0.212-2.548-0.641-3.384
	C791.17,438.404,784.953,443.407,783.797,445.713z"/>
    <g>
	<path fill="#070101" d="M650.27,620.535c1.756-0.469,5.5,5.145,4.797,5.848c-3.393,3.393-23.397,60.242-19.535,64.104
		c-4.564,0-7.722-1.873-7.722-5.615c0-9.242,11.229-38.252,17.664-53.928c-11.582,11.35-32.285,36.031-34.859,42.932
		c0,0.703-0.117,1.168-0.233,1.168c-0.117,0-0.469,0-0.936,0c-0.585,0-1.171-0.115-1.64-0.232c-0.116,0-0.116,0-0.116,0
		c-3.041-0.818-4.912-3.041-4.912-5.965c0-7.018,4.093-18.016,7.836-26.789c-11.932,14.506-30.998,41.762-32.168,47.258
		c0,0.119,0,0.236,0,0.352c-3.158-0.115-6.199-1.871-6.199-4.678c0-17.664,22.692-60.709,22.109-69.953
		c-15.559-0.232-49.364,13.336-49.364,32.754c0,0.234,0.583,0.703,0.583,0.936c-0.116,2.223-7.134-3.627-7.018-6.785
		c0.35-8.773,24.682-33.922,55.446-32.752c17.664,0.701-5.732,39.537-13.452,66.793c9.359-17.896,36.264-47.842,37.082-47.842
		c1.754-0.352,5.381,5.146,4.679,5.85c-2.456,2.455-10.294,19.883-12.517,31.465c6.667-14.273,39.538-44.801,40.357-44.801
		L650.27,620.535z"/>
        <path fill="#070101" d="M680.325,654.225c0,0,0,0.115,2.341,0.115c-2.341,5.498-14.623,24.33-24.565,24.33
		c-8.188,0-10.997-8.305-9.709-16.377c1.637-10.291,9.709-26.318,21.641-26.318c5.497,0,6.901,4.678,6.432,6.785
		c0,0,0,0.115,0,0.234c0,0.117,0,0.234,0,0.234c-0.702,2.338-5.147,15.205-13.452,18.832c-4.093,1.873-6.784-2.809-6.784-2.809
		c5.38,0.469,13.452-10.645,15.791-16.023c-0.35,0-0.702,0-1.052,0c-10.061,0-22.109,23.627-12.75,30.178
		c11.113-0.818,21.874-18.715,21.874-18.715L680.325,654.225z"/>
        <path fill="#070101" d="M684.301,673.641c3.51,0,13.919-19.184,13.919-19.184h2.575c0,0-9.124,23.98-18.716,23.98
		c-16.376,0,3.392-39.771,7.018-39.771s5.732,3.158,5.732,3.158c-4.562,2.924-16.26,31.816-10.761,31.816H684.301z M697.753,634.922
		c-2.222,0-5.264-1.053-5.38-5.732c0-1.988,1.87-4.91,3.041-5.848c1.168-0.936,6.199,2.338,6.199,3.393c0,0-2.808,3.273-3.743,8.188
		H697.753z"/>
        <path fill="#070101" d="M717.285,654.692h2.459c0,0-3.158,6.316-8.189,13.219c-2.69,3.742-8.656,11.814-12.75,10.996
		c-9.826-1.873,0.35-31.232,8.771-49.014c2.809-6.199,7.37-13.453,8.308-13.453c4.093,0,5.847,3.275,5.847,3.275
		c-0.936,0.584-5.847,8.541-6.549,9.943c-6.668,12.635-14.973,33.689-12.75,42.111C708.162,670.248,717.285,654.692,717.285,654.692
		z"/>
        <path fill="#070101" d="M735.181,654.692h2.458c0,0-3.158,6.316-8.188,13.219c-2.691,3.742-8.657,11.814-12.75,10.996
		c-9.825-1.873,0.35-31.232,8.771-49.014c2.808-6.199,7.37-13.453,8.308-13.453c4.093,0,5.847,3.275,5.847,3.275
		c-0.936,0.584-5.847,8.541-6.549,9.943c-6.668,12.635-14.974,33.689-12.751,42.111
		C726.057,670.248,735.181,654.692,735.181,654.692z"/>
        <path fill="#070101" d="M762.785,654.225c0,0,0,0.115,2.341,0.115c-2.341,5.498-14.623,24.33-24.565,24.33
		c-8.188,0-10.996-8.305-9.709-16.377c1.638-10.291,9.709-26.318,21.641-26.318c5.497,0,6.901,4.678,6.433,6.785
		c0,0,0,0.115,0,0.234c0,0.117,0,0.234,0,0.234c-0.702,2.338-5.147,15.205-13.452,18.832c-4.093,1.873-6.784-2.809-6.784-2.809
		c5.38,0.469,13.452-10.645,15.791-16.023c-0.35,0-0.702,0-1.052,0c-10.062,0-22.109,23.627-12.75,30.178
		c11.113-0.818,21.873-18.715,21.873-18.715L762.785,654.225z"/>
        <path fill="#070101" d="M801.502,654.807c0,0-9.124,23.98-18.717,23.98c-5.496,0-6.9-4.563-6.198-10.527
		c-3.394,5.498-7.72,10.527-12.165,10.527c-16.377,0,4.328-42.461,7.953-42.461c3.626,0,5.732,3.158,5.732,3.158
		c-4.563,2.924-17.079,34.508-11.58,34.508c2.923,0,10.528-13.104,13.101-17.545c3.394-9.127,8.421-17.549,10.062-17.549
		c3.624,0,5.729,3.158,5.729,3.158c-4.562,2.926-16.26,32.053-10.761,32.053c3.508,0,13.919-19.184,13.919-19.184L801.502,654.807z"
        />
        <path fill="#070101" d="M824.66,636.91c2.456-0.584,6.435,1.404,5.966,1.873c-4.445,4.445-7.839,11.113-8.071,19.184
		c-0.469,0-4.094-0.469-4.094-4.564c0-2.223,0.702-5.027,1.521-7.719c-5.967,3.744-12.634,14.973-17.897,32.871l-0.235,0.701
		c-0.7,0-1.521,0.117-1.987,0.117c-1.055,0-2.106,0-3.042-0.586c-0.585-0.35-1.054-0.818-1.403-1.402
		c-0.702-1.17-1.055-2.574-1.288-3.861c-0.116-1.168-0.116-2.223-0.116-3.391c0.116-1.287,0.233-2.576,0.469-3.861
		c0.233-1.402,0.583-2.807,0.936-4.211c0.35-1.404,0.818-2.809,1.287-4.213c0.467-1.4,1.052-2.805,1.638-4.209
		c0.585-1.404,1.168-2.809,1.754-4.211c0.585-1.289,1.17-2.574,1.754-3.861c0.585-1.17,1.17-2.223,1.756-3.273
		c0.585-0.938,1.168-1.873,1.754-2.809c0.469-0.701,0.935-1.404,1.521-1.988c0.353-0.352,0.702-0.703,1.171-0.936
		c0.116,0,0.232,0,0.35,0c3.627,0,5.732,3.156,5.732,3.156c-0.586-0.232-4.445,6.199-4.797,6.785
		c-2.223,4.328-4.21,8.773-5.614,13.453c-0.702,2.457-1.287,4.914-1.637,7.369c5.729-14.037,12.397-24.916,21.641-30.531
		c0.233-0.232,0.583-0.467,0.935-0.586c0.117,0,0.233-0.115,0.35-0.115v0.115L824.66,636.91z"/>
        <path fill="#070101" d="M847.7,638.783c0,0-13.569,3.625-13.569,13.801c0,11.35,12.049,23.631-6.198,26.203
		c-6.435,0.938-9.007-5.146-9.007-9.008c0-3.859,1.401-3.742,1.401-3.742s0.585,7.137,5.966,7.137c3.627,0,3.862-3.744,3.862-6.199
		c0-2.459-4.212-9.828-4.212-13.572c0-10.408,10.294-17.545,15.206-17.545c4.913,0,6.435,2.926,6.435,2.926H847.7z"/>
        <path fill="#070101" d="M923.028,613.748c1.404,0.354,8.188,2.342,8.188,8.424c0,6.668-40.825,68.314-47.377,68.314
		c0,0.584-0.466,0.469-1.168,0c-1.521-0.234-1.989-0.936-1.989-1.754c-1.87-2.223-3.977-5.5-3.977-8.189
		c0-3.393,10.644-31.936,17.545-51.354c1.404-3.977,2.808-14.619-2.456-14.619c-14.973,0-45.62,19.299-47.727,33.922
		c-0.116,0.584,0.469,1.52,0.469,1.988c0,2.457-7.253-3.627-7.253-6.787c0-8.771,23.395-34.855,54.161-34.855
		c6.316,0,17.313,4.795,10.527,22.459c-5.264,14.619-13.451,38.018-16.729,51.117c8.424-10.176,38.251-48.895,38.251-62.699
		c0-4.211-0.233-5.613-0.467-6.082V613.748z M922.677,613.516c0,0,0.116-0.234,0.235,0.117c-0.119,0-0.235,0-0.235,0V613.516z"/>
        <path fill="#070101" d="M947.472,660.656c5.147-1.168,9.593-4.563,9.593-4.563v3.158c0,0-4.445,3.859-11.112,4.682
		c-0.703,1.285-1.404,2.572-2.223,3.742c-1.873,2.807-4.096,5.498-6.785,7.604c-2.691,2.105-5.966,3.627-9.359,3.977
		c-1.87,0.117-3.859-0.117-5.496-1.17c-2.34-1.521-3.277-4.445-3.744-7.135c-1.054-6.785,0.233-13.805,2.809-20.121
		c0.583-1.287,1.168-2.572,2.22-3.51c0.586-0.467,1.288-0.818,1.989-1.051c0.586-2.691,1.99-5.264,4.096-7.018
		c2.104-1.756,4.795-2.691,7.486-3.045c3.977-0.465,8.305,0.469,10.878,3.395c1.637,1.754,2.456,4.092,2.691,6.434
		c0.233,2.34-0.117,4.795-0.702,7.135c-0.586,2.455-1.404,4.914-2.456,7.254L947.472,660.656z M928.054,674.11
		c2.573-0.469,7.604-2.457,12.398-10.295c-5.497-0.818-10.761-3.859-13.333-8.422c-1.055,3.627-1.873,7.486-1.64,11.346
		c0.116,1.873,0.469,3.979,1.404,5.617c0.235,0.35,0.585,1.051,1.054,1.637L928.054,674.11z M941.973,661.008
		c5.147-10.293,2.106-19.533-1.754-21.756c-8.657,1.051-9.476,10.76-3.859,18.131c1.637,2.105,3.626,3.156,5.732,3.625H941.973z"/>
        <path fill="#070101" d="M982.208,654.225c0,0,0,0.115,2.342,0.115c-2.342,5.498-14.623,24.33-24.565,24.33
		c-8.188,0-10.996-8.305-9.709-16.377c1.638-10.291,9.709-26.318,21.641-26.318c5.497,0,6.901,4.678,6.433,6.785
		c0,0,0,0.115,0,0.234c0,0.117,0,0.234,0,0.234c-0.702,2.338-5.147,15.205-13.453,18.832c-4.093,1.873-6.784-2.809-6.784-2.809
		c5.381,0.469,13.452-10.645,15.792-16.023c-0.35,0-0.702,0-1.052,0c-10.062,0-22.109,23.627-12.751,30.178
		c11.113-0.818,21.874-18.715,21.874-18.715L982.208,654.225z"/>
        <path fill="#070101" d="M1020.925,654.807c0,0-9.123,23.98-18.716,23.98c-5.497,0-6.901-4.563-6.199-10.527
		c-3.394,5.498-7.72,10.527-12.165,10.527c-16.376,0,4.329-42.461,7.953-42.461c3.627,0,5.732,3.158,5.732,3.158
		c-4.562,2.924-17.078,34.508-11.579,34.508c2.923,0,10.527-13.104,13.101-17.545c3.393-9.127,8.421-17.549,10.061-17.549
		c3.624,0,5.73,3.158,5.73,3.158c-4.562,2.926-16.26,32.053-10.761,32.053c3.508,0,13.919-19.184,13.919-19.184L1020.925,654.807z"
        />
        <path fill="#070101" d="M1064.671,654.807c0,0-9.709,23.98-18.717,23.98c-5.73,0-10.994-4.326-14.737-11.813
		c-8.071,7.953-14.739,14.736-14.739,14.736c-1.521,0.469-2.572-3.156-1.637-5.146c1.287-1.285,7.134-7.719,13.918-15.09
		c-1.87-5.264-3.041-11.578-3.391-18.715l-5.497,13.102h-2.575l7.955-17.547c0,0-0.235-1.521,5.614-3.627
		c0,8.541,1.287,15.441,3.157,20.938c9.243-9.941,18.483-19.65,19.537-19.65c1.987,0,7.72,4.797,6.549,4.797
		c-1.637,0-12.867,10.527-23.511,20.939c4.328,8.654,9.825,12.281,11.463,12.281c5.38,0,13.921-19.186,13.921-19.186H1064.671z"/>
        <path fill="#070101" d="M1089.816,692.358c0,0,6.667,0.584,5.966,4.68c-0.702,4.092-8.773,3.393-8.188,2.338
		c0.583-1.053,1.987-6.434,2.104-7.252L1089.816,692.358z M1117.07,621.002c-12.165,25.15-23.278,67.73-18.833,67.73
		c0,0-7.719-1.404-7.719-8.775c0-7.369,20.236-63.4,21.638-65.74c0,0,4.681,1.639,4.681,6.785H1117.07z"/>
</g>
</svg>